<?xml version="1.0" encoding="UTF-8"?>
<svg xmlns="http://www.w3.org/2000/svg" xmlns:xlink="http://www.w3.org/1999/xlink" width="36" height="28" viewBox="0 0 36 28" version="1.1">
<defs>
<linearGradient id="linear0" gradientUnits="userSpaceOnUse" x1="0" y1="7.48" x2="13.98" y2="7.48" gradientTransform="matrix(1.147593,0,0,1.537208,0,0.226614)">
<stop offset="0" style="stop-color:rgb(23.529412%,38.431373%,67.843137%);stop-opacity:1;"/>
<stop offset="1" style="stop-color:rgb(15.686275%,33.333333%,58.823529%);stop-opacity:0.988235;"/>
</linearGradient>
<linearGradient id="linear1" gradientUnits="userSpaceOnUse" x1="16.86" y1="9.09" x2="21.9" y2="9.09" gradientTransform="matrix(1.147593,0,0,1.537208,0,0.226614)">
<stop offset="0" style="stop-color:rgb(23.529412%,38.431373%,67.843137%);stop-opacity:1;"/>
<stop offset="1" style="stop-color:rgb(15.686275%,33.333333%,58.823529%);stop-opacity:0.988235;"/>
</linearGradient>
<linearGradient id="linear2" gradientUnits="userSpaceOnUse" x1="20.89" y1="8.96" x2="26.25" y2="8.96" gradientTransform="matrix(1.147593,0,0,1.537208,0,0.226614)">
<stop offset="0" style="stop-color:rgb(23.529412%,38.431373%,67.843137%);stop-opacity:1;"/>
<stop offset="1" style="stop-color:rgb(15.686275%,33.333333%,58.823529%);stop-opacity:0.988235;"/>
</linearGradient>
<linearGradient id="linear3" gradientUnits="userSpaceOnUse" x1="29.39" y1="7.08" x2="31.37" y2="7.08" gradientTransform="matrix(1.147593,0,0,1.537208,0,0.226614)">
<stop offset="0" style="stop-color:rgb(23.529412%,38.431373%,67.843137%);stop-opacity:1;"/>
<stop offset="1" style="stop-color:rgb(15.686275%,33.333333%,58.823529%);stop-opacity:0.988235;"/>
</linearGradient>
</defs>
<g id="surface1">
<path style=" stroke:none;fill-rule:nonzero;fill:url(#linear0);" d="M 3.925781 20.765625 C 2.722656 19.902344 1.722656 18.617188 1.03125 17.042969 C 0.335938 15.425781 -0.0195312 13.589844 0 11.726562 C -0.0234375 9.851562 0.335938 8 1.03125 6.375 C 1.726562 4.8125 2.726562 3.53125 3.925781 2.671875 C 5.183594 1.75 6.597656 1.277344 8.03125 1.300781 C 9.460938 1.28125 10.871094 1.746094 12.128906 2.65625 C 13.324219 3.519531 14.316406 4.808594 15 6.375 C 15.710938 7.996094 16.078125 9.84375 16.066406 11.726562 C 16.089844 13.625 15.722656 15.5 15 17.136719 C 14.316406 18.703125 13.324219 19.992188 12.128906 20.855469 C 10.871094 21.746094 9.457031 22.1875 8.03125 22.132812 C 6.597656 22.15625 5.183594 21.683594 3.925781 20.765625 Z M 11.304688 19.105469 C 12.265625 18.382812 13.058594 17.316406 13.597656 16.027344 C 14.160156 14.707031 14.449219 13.214844 14.4375 11.695312 C 14.445312 10.171875 14.160156 8.671875 13.597656 7.34375 C 13.058594 6.054688 12.265625 4.992188 11.304688 4.269531 C 10.292969 3.578125 9.167969 3.246094 8.03125 3.300781 C 6.886719 3.28125 5.757812 3.65625 4.75 4.390625 C 3.789062 5.117188 2.996094 6.179688 2.457031 7.46875 C 1.890625 8.789062 1.601562 10.292969 1.617188 11.816406 C 1.601562 13.335938 1.890625 14.835938 2.457031 16.152344 C 2.996094 17.4375 3.789062 18.5 4.75 19.226562 C 5.761719 19.929688 6.894531 20.269531 8.03125 20.210938 C 9.175781 20.230469 10.304688 19.851562 11.304688 19.105469 Z M 11.304688 19.105469 "/>
<path style=" stroke:none;fill-rule:nonzero;fill:url(#linear1);" d="M 22.457031 7.25 C 23.285156 6.679688 24.203125 6.40625 25.132812 6.453125 L 25.132812 8.464844 L 24.753906 8.464844 C 23.6875 8.398438 22.652344 8.960938 21.917969 10.003906 C 21.210938 11.136719 20.847656 12.585938 20.898438 14.0625 L 20.898438 21.886719 L 19.347656 21.886719 L 19.347656 6.515625 L 20.828125 6.515625 L 20.828125 9.589844 C 21.167969 8.59375 21.742188 7.773438 22.457031 7.25 Z M 22.457031 7.25 "/>
<path style=" stroke:none;fill-rule:nonzero;fill:url(#linear2);" d="M 25.027344 27.527344 C 24.640625 27.386719 24.277344 27.128906 23.972656 26.773438 L 24.511719 25.238281 C 25.019531 25.78125 25.65625 26.058594 26.304688 26.019531 C 26.832031 26.070312 27.347656 25.796875 27.714844 25.28125 C 28.074219 24.675781 28.253906 23.90625 28.207031 23.132812 L 28.207031 6.574219 L 29.757812 6.574219 L 29.757812 23.101562 C 29.8125 24.347656 29.5 25.574219 28.886719 26.511719 C 28.230469 27.394531 27.320312 27.851562 26.394531 27.773438 C 25.933594 27.777344 25.472656 27.695312 25.027344 27.527344 Z M 28.183594 2.746094 C 27.984375 2.488281 27.863281 2.136719 27.851562 1.765625 C 27.855469 1.378906 27.972656 1.011719 28.183594 0.75 C 28.394531 0.453125 28.683594 0.292969 28.988281 0.304688 C 29.296875 0.261719 29.601562 0.390625 29.835938 0.65625 C 30.046875 0.914062 30.164062 1.277344 30.160156 1.65625 C 30.152344 2.265625 29.875 2.816406 29.457031 3.050781 C 29.035156 3.289062 28.550781 3.167969 28.21875 2.746094 Z M 28.183594 2.746094 "/>
<path style=" stroke:none;fill-rule:nonzero;fill:url(#linear3);" d="M 34.0625 2.761719 C 33.855469 2.503906 33.734375 2.144531 33.726562 1.765625 C 33.71875 1.359375 33.839844 0.96875 34.0625 0.6875 C 34.273438 0.402344 34.5625 0.246094 34.863281 0.257812 C 35.160156 0.25 35.449219 0.398438 35.667969 0.671875 C 35.882812 0.929688 36.003906 1.300781 36 1.6875 C 36.011719 2.09375 35.890625 2.484375 35.667969 2.761719 C 35.222656 3.347656 34.507812 3.347656 34.0625 2.761719 Z M 34.0625 6.574219 L 35.609375 6.574219 L 35.609375 21.949219 L 34.082031 21.949219 Z M 34.0625 6.574219 "/>
</g>
</svg>
