<?xml version="1.0" encoding="UTF-8"?>
<svg xmlns="http://www.w3.org/2000/svg" xmlns:xlink="http://www.w3.org/1999/xlink" width="150" height="8" viewBox="0 0 150 8" version="1.1">
<defs>
<linearGradient id="linear0" gradientUnits="userSpaceOnUse" x1="0" y1="7.48" x2="13.98" y2="7.48" gradientTransform="matrix(4.781639,0,0,0.439202,0,0.0647469)">
<stop offset="0" style="stop-color:rgb(23.529412%,38.431373%,67.843137%);stop-opacity:1;"/>
<stop offset="1" style="stop-color:rgb(15.686275%,33.333333%,58.823529%);stop-opacity:0.988235;"/>
</linearGradient>
<linearGradient id="linear1" gradientUnits="userSpaceOnUse" x1="16.86" y1="9.09" x2="21.9" y2="9.09" gradientTransform="matrix(4.781639,0,0,0.439202,0,0.0647469)">
<stop offset="0" style="stop-color:rgb(23.529412%,38.431373%,67.843137%);stop-opacity:1;"/>
<stop offset="1" style="stop-color:rgb(15.686275%,33.333333%,58.823529%);stop-opacity:0.988235;"/>
</linearGradient>
<linearGradient id="linear2" gradientUnits="userSpaceOnUse" x1="20.89" y1="8.96" x2="26.25" y2="8.96" gradientTransform="matrix(4.781639,0,0,0.439202,0,0.0647469)">
<stop offset="0" style="stop-color:rgb(23.529412%,38.431373%,67.843137%);stop-opacity:1;"/>
<stop offset="1" style="stop-color:rgb(15.686275%,33.333333%,58.823529%);stop-opacity:0.988235;"/>
</linearGradient>
<linearGradient id="linear3" gradientUnits="userSpaceOnUse" x1="29.39" y1="7.08" x2="31.37" y2="7.08" gradientTransform="matrix(4.781639,0,0,0.439202,0,0.0647469)">
<stop offset="0" style="stop-color:rgb(23.529412%,38.431373%,67.843137%);stop-opacity:1;"/>
<stop offset="1" style="stop-color:rgb(15.686275%,33.333333%,58.823529%);stop-opacity:0.988235;"/>
</linearGradient>
</defs>
<g id="surface1">
<path style=" stroke:none;fill-rule:nonzero;fill:url(#linear0);" d="M 16.351562 5.933594 C 11.347656 5.6875 7.179688 5.320312 4.304688 4.871094 C 1.40625 4.40625 -0.0820312 3.882812 0 3.351562 C -0.0898438 2.8125 1.394531 2.285156 4.304688 1.820312 C 7.199219 1.375 11.363281 1.007812 16.351562 0.761719 C 21.597656 0.5 27.496094 0.367188 33.472656 0.371094 C 39.425781 0.367188 45.300781 0.5 50.542969 0.757812 C 55.511719 1.007812 59.644531 1.375 62.496094 1.820312 C 65.457031 2.285156 66.996094 2.8125 66.941406 3.351562 C 67.046875 3.894531 65.507812 4.429688 62.496094 4.894531 C 59.644531 5.34375 55.511719 5.710938 50.542969 5.957031 C 45.289062 6.214844 39.410156 6.339844 33.472656 6.324219 C 27.496094 6.332031 21.597656 6.195312 16.351562 5.933594 Z M 47.097656 5.457031 C 51.109375 5.25 54.417969 4.949219 56.664062 4.578125 C 58.996094 4.203125 60.203125 3.773438 60.152344 3.339844 C 60.195312 2.90625 58.992188 2.476562 56.664062 2.097656 C 54.417969 1.730469 51.109375 1.425781 47.097656 1.21875 C 42.886719 1.023438 38.195312 0.925781 33.472656 0.941406 C 28.699219 0.9375 23.988281 1.046875 19.796875 1.253906 C 15.792969 1.460938 12.488281 1.765625 10.234375 2.132812 C 7.882812 2.511719 6.675781 2.941406 6.742188 3.375 C 6.671875 3.808594 7.875 4.238281 10.234375 4.613281 C 12.488281 4.980469 15.792969 5.285156 19.796875 5.492188 C 24.011719 5.695312 28.726562 5.792969 33.472656 5.773438 C 38.238281 5.78125 42.9375 5.671875 47.097656 5.457031 Z M 47.097656 5.457031 "/>
<path style=" stroke:none;fill-rule:nonzero;fill:url(#linear1);" d="M 93.578125 2.070312 C 97.015625 1.910156 100.851562 1.832031 104.71875 1.84375 L 104.71875 2.417969 L 103.140625 2.417969 C 98.695312 2.398438 94.378906 2.558594 91.328125 2.859375 C 88.375 3.183594 86.855469 3.597656 87.074219 4.015625 L 87.074219 6.253906 L 80.617188 6.253906 L 80.617188 1.859375 L 86.785156 1.859375 L 86.785156 2.738281 C 88.203125 2.457031 90.585938 2.222656 93.578125 2.070312 Z M 93.578125 2.070312 "/>
<path style=" stroke:none;fill-rule:nonzero;fill:url(#linear2);" d="M 104.289062 7.863281 C 102.660156 7.824219 101.15625 7.75 99.886719 7.648438 L 102.136719 7.210938 C 104.246094 7.367188 106.894531 7.445312 109.59375 7.433594 C 111.800781 7.449219 113.957031 7.371094 115.476562 7.222656 C 116.984375 7.050781 117.71875 6.832031 117.53125 6.609375 L 117.53125 1.878906 L 123.988281 1.878906 L 123.988281 6.601562 C 124.214844 6.957031 122.910156 7.304688 120.355469 7.574219 C 117.621094 7.828125 113.839844 7.957031 109.976562 7.933594 C 108.054688 7.9375 106.136719 7.914062 104.289062 7.863281 Z M 117.4375 0.785156 C 116.597656 0.710938 116.101562 0.609375 116.050781 0.503906 C 116.058594 0.394531 116.558594 0.289062 117.4375 0.214844 C 118.304688 0.128906 119.523438 0.0820312 120.785156 0.0859375 C 122.0625 0.0742188 123.339844 0.113281 124.324219 0.1875 C 125.195312 0.261719 125.683594 0.363281 125.660156 0.472656 C 125.636719 0.648438 124.484375 0.804688 122.730469 0.871094 C 120.980469 0.941406 118.957031 0.90625 117.582031 0.785156 Z M 117.4375 0.785156 "/>
<path style=" stroke:none;fill-rule:nonzero;fill:url(#linear3);" d="M 141.917969 0.789062 C 141.058594 0.714844 140.558594 0.613281 140.53125 0.503906 C 140.5 0.386719 141.003906 0.277344 141.917969 0.195312 C 142.800781 0.113281 144.011719 0.0703125 145.265625 0.0742188 C 146.507812 0.0703125 147.707031 0.113281 148.613281 0.191406 C 149.511719 0.265625 150.015625 0.371094 150 0.480469 C 150.046875 0.597656 149.539062 0.710938 148.613281 0.789062 C 146.753906 0.957031 143.777344 0.957031 141.917969 0.789062 Z M 141.917969 1.878906 L 148.375 1.878906 L 148.375 6.269531 L 142.015625 6.269531 Z M 141.917969 1.878906 "/>
</g>
</svg>
