<?xml version="1.0" encoding="UTF-8"?>
<svg xmlns="http://www.w3.org/2000/svg" xmlns:xlink="http://www.w3.org/1999/xlink" width="97" height="8" viewBox="0 0 97 8" version="1.1">
<defs>
<linearGradient id="linear0" gradientUnits="userSpaceOnUse" x1="0" y1="12.48" x2="20.63" y2="12.48" gradientTransform="matrix(0.668966,0,0,0.32,0,0.0064)">
<stop offset="0" style="stop-color:rgb(23.529412%,38.431373%,67.843137%);stop-opacity:1;"/>
<stop offset="1" style="stop-color:rgb(15.686275%,33.333333%,58.823529%);stop-opacity:0.988235;"/>
</linearGradient>
<linearGradient id="linear1" gradientUnits="userSpaceOnUse" x1="27.06" y1="13.68" x2="43.99" y2="13.68" gradientTransform="matrix(0.668966,0,0,0.32,0,0.0064)">
<stop offset="0" style="stop-color:rgb(23.529412%,38.431373%,67.843137%);stop-opacity:1;"/>
<stop offset="1" style="stop-color:rgb(15.686275%,33.333333%,58.823529%);stop-opacity:0.988235;"/>
</linearGradient>
<linearGradient id="linear2" gradientUnits="userSpaceOnUse" x1="43.79" y1="13.68" x2="56.4" y2="13.68" gradientTransform="matrix(0.668966,0,0,0.32,0,0.0064)">
<stop offset="0" style="stop-color:rgb(23.529412%,38.431373%,67.843137%);stop-opacity:1;"/>
<stop offset="1" style="stop-color:rgb(15.686275%,33.333333%,58.823529%);stop-opacity:0.988235;"/>
</linearGradient>
<linearGradient id="linear3" gradientUnits="userSpaceOnUse" x1="58.62" y1="13.68" x2="68.74" y2="13.68" gradientTransform="matrix(0.668966,0,0,0.32,0,0.0064)">
<stop offset="0" style="stop-color:rgb(23.529412%,38.431373%,67.843137%);stop-opacity:1;"/>
<stop offset="1" style="stop-color:rgb(15.686275%,33.333333%,58.823529%);stop-opacity:0.988235;"/>
</linearGradient>
<linearGradient id="linear4" gradientUnits="userSpaceOnUse" x1="70.41" y1="13.68" x2="81.14" y2="13.68" gradientTransform="matrix(0.668966,0,0,0.32,0,0.0064)">
<stop offset="0" style="stop-color:rgb(23.529412%,38.431373%,67.843137%);stop-opacity:1;"/>
<stop offset="1" style="stop-color:rgb(15.686275%,33.333333%,58.823529%);stop-opacity:0.988235;"/>
</linearGradient>
<linearGradient id="linear5" gradientUnits="userSpaceOnUse" x1="83.88" y1="13.68" x2="93.32" y2="13.68" gradientTransform="matrix(0.668966,0,0,0.32,0,0.0064)">
<stop offset="0" style="stop-color:rgb(23.529412%,38.431373%,67.843137%);stop-opacity:1;"/>
<stop offset="1" style="stop-color:rgb(15.686275%,33.333333%,58.823529%);stop-opacity:0.988235;"/>
</linearGradient>
<linearGradient id="linear6" gradientUnits="userSpaceOnUse" x1="95.96" y1="13.68" x2="106.14" y2="13.68" gradientTransform="matrix(0.668966,0,0,0.32,0,0.0064)">
<stop offset="0" style="stop-color:rgb(23.529412%,38.431373%,67.843137%);stop-opacity:1;"/>
<stop offset="1" style="stop-color:rgb(15.686275%,33.333333%,58.823529%);stop-opacity:0.988235;"/>
</linearGradient>
<linearGradient id="linear7" gradientUnits="userSpaceOnUse" x1="108.47" y1="13.75" x2="118.81" y2="13.75" gradientTransform="matrix(0.668966,0,0,0.32,0,0.0064)">
<stop offset="0" style="stop-color:rgb(23.529412%,38.431373%,67.843137%);stop-opacity:1;"/>
<stop offset="1" style="stop-color:rgb(15.686275%,33.333333%,58.823529%);stop-opacity:0.988235;"/>
</linearGradient>
<linearGradient id="linear8" gradientUnits="userSpaceOnUse" x1="122.05" y1="13.67" x2="132.77" y2="13.67" gradientTransform="matrix(0.668966,0,0,0.32,0,0.0064)">
<stop offset="0" style="stop-color:rgb(23.529412%,38.431373%,67.843137%);stop-opacity:1;"/>
<stop offset="1" style="stop-color:rgb(15.686275%,33.333333%,58.823529%);stop-opacity:0.988235;"/>
</linearGradient>
<linearGradient id="linear9" gradientUnits="userSpaceOnUse" x1="135.56" y1="13.68" x2="145" y2="13.68" gradientTransform="matrix(0.668966,0,0,0.32,0,0.0064)">
<stop offset="0" style="stop-color:rgb(23.529412%,38.431373%,67.843137%);stop-opacity:1;"/>
<stop offset="1" style="stop-color:rgb(15.686275%,33.333333%,58.823529%);stop-opacity:0.988235;"/>
</linearGradient>
</defs>
<g id="surface1">
<path style=" stroke:none;fill-rule:nonzero;fill:url(#linear0);" d="M 0.0390625 7.980469 C 0.0390625 7.917969 0.0390625 7.863281 0 7.8125 C -0.0390625 7.761719 0 7.746094 0 7.714844 C 0 7.074219 0 6.433594 0 5.8125 C -0.0078125 5.5 0.0742188 5.183594 0.242188 4.878906 C 0.421875 4.519531 0.660156 4.167969 0.957031 3.828125 L 1.042969 3.734375 L 2.601562 4.054688 C 2.59375 4.066406 2.582031 4.082031 2.570312 4.09375 C 2.078125 4.546875 1.738281 5.03125 1.558594 5.53125 C 1.441406 5.894531 1.402344 6.261719 1.4375 6.628906 C 1.441406 6.675781 1.457031 6.722656 1.476562 6.765625 C 1.476562 6.835938 1.519531 6.839844 1.652344 6.8125 L 2.871094 6.566406 L 6.523438 5.8125 C 6.695312 5.777344 6.898438 5.777344 7.070312 5.8125 L 12.015625 6.773438 L 12.214844 6.808594 C 12.222656 6.773438 12.222656 6.734375 12.214844 6.699219 C 12.214844 6.265625 12.15625 5.835938 12.042969 5.40625 C 12 5.253906 11.953125 5.089844 11.914062 4.945312 C 11.898438 4.878906 11.804688 4.828125 11.671875 4.808594 L 6.101562 3.769531 L 2.085938 3.015625 C 1.804688 2.964844 1.832031 2.984375 1.960938 2.859375 C 2.808594 2 3.972656 1.21875 5.398438 0.558594 C 5.792969 0.375 6.222656 0.207031 6.636719 0.03125 C 6.664062 0.0195312 6.699219 0.0117188 6.738281 0.0117188 C 6.777344 0.0117188 6.816406 0.0195312 6.84375 0.03125 C 8.445312 0.53125 9.8125 1.183594 10.855469 1.953125 C 11.445312 2.386719 11.925781 2.851562 12.289062 3.339844 C 12.304688 3.355469 12.316406 3.375 12.324219 3.390625 C 12.324219 3.390625 12.324219 3.390625 12.324219 3.410156 L 12.183594 3.394531 C 11.574219 3.292969 10.964844 3.191406 10.363281 3.074219 C 10.261719 3.054688 10.175781 3.019531 10.121094 2.972656 C 9.636719 2.5625 9.070312 2.171875 8.4375 1.8125 C 7.980469 1.558594 7.492188 1.320312 7.015625 1.078125 C 6.890625 1.015625 6.878906 1.019531 6.742188 1.078125 C 5.800781 1.515625 4.96875 2.007812 4.269531 2.539062 C 4.265625 2.550781 4.265625 2.5625 4.269531 2.574219 C 4.269531 2.574219 4.269531 2.574219 4.269531 2.59375 L 4.460938 2.632812 C 7.285156 3.15625 10.121094 3.679688 12.972656 4.199219 C 13.109375 4.21875 13.207031 4.273438 13.21875 4.34375 C 13.347656 4.664062 13.488281 5 13.59375 5.335938 C 13.679688 5.582031 13.734375 5.835938 13.761719 6.085938 C 13.800781 6.46875 13.808594 6.851562 13.800781 7.230469 C 13.800781 7.460938 13.761719 7.683594 13.742188 7.910156 C 13.742188 7.9375 13.742188 7.964844 13.707031 7.996094 L 12.710938 7.8125 L 7.109375 6.726562 C 6.953125 6.691406 6.769531 6.691406 6.609375 6.726562 L 0.242188 7.949219 Z M 0.0390625 7.980469 "/>
<path style=" stroke:none;fill-rule:nonzero;fill:url(#linear1);" d="M 23.292969 2.027344 L 24.238281 2.027344 L 26.242188 5.722656 L 27.984375 2.027344 L 29.433594 2.027344 L 27.027344 6.726562 L 25.621094 6.726562 L 23.808594 3.445312 L 21.910156 6.726562 L 20.503906 6.726562 L 18.101562 2.027344 L 19.535156 2.027344 L 21.273438 5.722656 Z M 23.292969 2.027344 "/>
<path style=" stroke:none;fill-rule:nonzero;fill:url(#linear2);" d="M 32.917969 2.027344 L 34.117188 2.027344 L 37.730469 6.726562 L 36.238281 6.726562 L 33.507812 2.9375 L 30.773438 6.726562 L 29.292969 6.726562 Z M 30.964844 5.074219 L 36.125 5.074219 L 36.125 5.714844 L 30.964844 5.714844 Z M 30.964844 5.074219 "/>
<path style=" stroke:none;fill-rule:nonzero;fill:url(#linear3);" d="M 39.214844 2.027344 L 40.597656 2.027344 L 40.597656 6.726562 L 39.214844 6.726562 Z M 39.929688 4.269531 L 43.074219 4.269531 C 43.644531 4.285156 44.171875 4.132812 44.414062 3.886719 C 44.664062 3.613281 44.664062 3.304688 44.414062 3.035156 C 44.175781 2.785156 43.644531 2.632812 43.074219 2.644531 L 39.929688 2.644531 L 39.929688 2.003906 L 43.027344 2.003906 C 43.570312 2 44.101562 2.058594 44.578125 2.183594 C 45.019531 2.300781 45.378906 2.476562 45.617188 2.691406 C 45.871094 2.925781 45.996094 3.183594 45.984375 3.445312 C 45.996094 3.710938 45.871094 3.972656 45.617188 4.203125 C 45.375 4.414062 45.015625 4.589844 44.578125 4.707031 C 44.101562 4.828125 43.570312 4.890625 43.027344 4.886719 L 39.929688 4.886719 Z M 39.929688 4.269531 "/>
<path style=" stroke:none;fill-rule:nonzero;fill:url(#linear4);" d="M 49.324219 6.726562 C 48.503906 6.644531 47.738281 6.46875 47.101562 6.207031 L 47.957031 5.703125 C 48.324219 5.855469 48.746094 5.976562 49.203125 6.054688 C 49.671875 6.132812 50.167969 6.171875 50.667969 6.167969 C 51.246094 6.183594 51.824219 6.121094 52.328125 5.980469 C 52.707031 5.863281 52.929688 5.660156 52.914062 5.445312 C 52.933594 5.304688 52.835938 5.167969 52.648438 5.058594 C 52.46875 4.960938 52.238281 4.886719 51.980469 4.84375 C 51.621094 4.789062 51.253906 4.746094 50.882812 4.71875 L 50.675781 4.71875 C 50.128906 4.675781 49.59375 4.613281 49.070312 4.535156 C 48.644531 4.464844 48.277344 4.332031 48.011719 4.160156 C 47.6875 3.933594 47.535156 3.664062 47.570312 3.390625 C 47.550781 3.128906 47.695312 2.871094 47.976562 2.644531 C 48.261719 2.433594 48.683594 2.269531 49.175781 2.175781 C 49.773438 2.058594 50.417969 2.003906 51.0625 2.011719 C 51.410156 2.011719 51.757812 2.03125 52.097656 2.066406 C 52.445312 2.105469 52.785156 2.160156 53.109375 2.230469 C 53.453125 2.308594 53.78125 2.398438 54.085938 2.503906 L 53.304688 3 C 52.957031 2.875 52.582031 2.773438 52.179688 2.699219 C 51.820312 2.636719 51.445312 2.601562 51.0625 2.601562 C 50.511719 2.585938 49.964844 2.652344 49.496094 2.792969 C 49.128906 2.917969 48.917969 3.125 48.933594 3.339844 C 48.917969 3.480469 49.019531 3.617188 49.222656 3.722656 C 49.425781 3.816406 49.667969 3.886719 49.9375 3.929688 C 50.226562 3.972656 50.605469 4.019531 51.136719 4.066406 L 51.382812 4.066406 C 51.894531 4.113281 52.394531 4.179688 52.875 4.273438 C 53.277344 4.355469 53.625 4.488281 53.878906 4.660156 C 54.167969 4.875 54.308594 5.132812 54.28125 5.390625 C 54.296875 5.648438 54.148438 5.90625 53.859375 6.128906 C 53.550781 6.339844 53.121094 6.5 52.621094 6.59375 C 52 6.707031 51.335938 6.761719 50.667969 6.753906 C 50.21875 6.765625 49.769531 6.757812 49.324219 6.726562 Z M 49.324219 6.726562 "/>
<path style=" stroke:none;fill-rule:nonzero;fill:url(#linear5);" d="M 56.113281 2.027344 L 57.492188 2.027344 L 57.492188 6.726562 L 56.113281 6.726562 Z M 56.78125 2.027344 L 62.429688 2.027344 L 62.429688 2.667969 L 56.78125 2.667969 Z M 56.78125 4.085938 L 61.683594 4.085938 L 61.683594 4.726562 L 56.78125 4.726562 Z M 56.78125 6.109375 L 62.429688 6.109375 L 62.429688 6.75 L 56.78125 6.75 Z M 56.78125 6.109375 "/>
<path style=" stroke:none;fill-rule:nonzero;fill:url(#linear6);" d="M 65.820312 6.570312 C 65.304688 6.421875 64.886719 6.207031 64.617188 5.953125 C 64.332031 5.664062 64.199219 5.347656 64.21875 5.03125 L 64.21875 3.75 C 64.207031 3.429688 64.351562 3.117188 64.640625 2.828125 C 64.914062 2.574219 65.332031 2.359375 65.847656 2.210938 C 66.390625 2.0625 67.011719 1.988281 67.640625 1.992188 C 68.179688 1.992188 68.714844 2.050781 69.199219 2.167969 C 69.671875 2.28125 70.078125 2.449219 70.386719 2.65625 C 70.722656 2.875 70.949219 3.125 71.058594 3.390625 L 69.574219 3.390625 C 69.488281 3.246094 69.34375 3.113281 69.144531 3 C 68.949219 2.886719 68.710938 2.796875 68.433594 2.734375 C 67.972656 2.621094 67.429688 2.605469 66.941406 2.6875 C 66.449219 2.769531 66.050781 2.941406 65.832031 3.167969 C 65.660156 3.351562 65.574219 3.550781 65.585938 3.75 L 65.585938 5.03125 C 65.574219 5.230469 65.660156 5.429688 65.832031 5.613281 C 66.144531 5.941406 66.835938 6.152344 67.59375 6.140625 C 67.882812 6.140625 68.171875 6.113281 68.433594 6.054688 C 68.710938 5.996094 68.953125 5.90625 69.144531 5.796875 C 69.347656 5.675781 69.496094 5.535156 69.574219 5.386719 L 70.984375 5.386719 C 70.878906 5.652344 70.652344 5.902344 70.316406 6.121094 C 70.007812 6.328125 69.597656 6.496094 69.125 6.609375 C 68.644531 6.726562 68.109375 6.785156 67.570312 6.785156 C 66.957031 6.789062 66.355469 6.714844 65.820312 6.570312 Z M 65.820312 6.570312 "/>
<path style=" stroke:none;fill-rule:nonzero;fill:url(#linear7);" d="M 74.148438 6.578125 C 73.632812 6.445312 73.222656 6.234375 72.972656 5.980469 C 72.679688 5.679688 72.539062 5.351562 72.5625 5.019531 L 72.5625 2.027344 L 73.941406 2.027344 L 73.941406 5.054688 C 73.902344 5.34375 74.097656 5.628906 74.484375 5.851562 C 75.355469 6.230469 76.679688 6.230469 77.554688 5.851562 C 77.945312 5.632812 78.140625 5.34375 78.101562 5.054688 L 78.101562 2.027344 L 79.480469 2.027344 L 79.480469 5.035156 C 79.503906 5.363281 79.363281 5.695312 79.070312 5.992188 C 78.820312 6.246094 78.40625 6.457031 77.886719 6.59375 C 76.707031 6.863281 75.328125 6.863281 74.148438 6.59375 Z M 74.148438 6.578125 "/>
<path style=" stroke:none;fill-rule:nonzero;fill:url(#linear8);" d="M 81.648438 2.027344 L 83.023438 2.027344 L 83.023438 6.726562 L 81.648438 6.726562 Z M 82.25 4.117188 L 85.59375 4.117188 C 85.832031 4.117188 86.0625 4.085938 86.261719 4.027344 C 86.46875 3.964844 86.632812 3.875 86.730469 3.769531 C 86.847656 3.648438 86.90625 3.519531 86.898438 3.386719 C 86.90625 3.253906 86.847656 3.121094 86.730469 3 C 86.632812 2.894531 86.46875 2.808594 86.261719 2.746094 C 86.0625 2.6875 85.832031 2.652344 85.59375 2.652344 L 82.25 2.652344 L 82.25 2.011719 L 85.554688 2.011719 C 86.074219 2.007812 86.589844 2.066406 87.050781 2.183594 C 87.472656 2.292969 87.820312 2.457031 88.050781 2.660156 C 88.296875 2.878906 88.421875 3.125 88.410156 3.371094 C 88.421875 3.621094 88.296875 3.867188 88.050781 4.085938 C 87.820312 4.289062 87.46875 4.453125 87.046875 4.5625 C 86.585938 4.679688 86.074219 4.738281 85.554688 4.734375 L 82.28125 4.734375 Z M 84.925781 4.597656 L 86.304688 4.453125 L 88.820312 6.726562 L 87.179688 6.726562 Z M 84.925781 4.597656 "/>
<path style=" stroke:none;fill-rule:nonzero;fill:url(#linear9);" d="M 90.683594 2.027344 L 92.0625 2.027344 L 92.0625 6.726562 L 90.683594 6.726562 Z M 91.355469 2.027344 L 97 2.027344 L 97 2.667969 L 91.355469 2.667969 Z M 91.355469 4.085938 L 96.257812 4.085938 L 96.257812 4.726562 L 91.355469 4.726562 Z M 91.355469 6.109375 L 97 6.109375 L 97 6.75 L 91.355469 6.75 Z M 91.355469 6.109375 "/>
</g>
</svg>
