<?xml version="1.0" encoding="UTF-8"?>
<svg xmlns="http://www.w3.org/2000/svg" xmlns:xlink="http://www.w3.org/1999/xlink" width="145pt" height="25pt" viewBox="0 0 145 25" version="1.1">
<defs>
<linearGradient id="linear0" gradientUnits="userSpaceOnUse" x1="0" y1="12.48" x2="20.63" y2="12.48" gradientTransform="matrix(1,0,0,1,0,0.02)">
<stop offset="0" style="stop-color:rgb(23.529412%,38.431373%,67.843137%);stop-opacity:1;"/>
<stop offset="1" style="stop-color:rgb(15.686275%,33.333333%,58.823529%);stop-opacity:0.988235;"/>
</linearGradient>
<linearGradient id="linear1" gradientUnits="userSpaceOnUse" x1="27.06" y1="13.68" x2="43.99" y2="13.68" gradientTransform="matrix(1,0,0,1,0,0.02)">
<stop offset="0" style="stop-color:rgb(23.529412%,38.431373%,67.843137%);stop-opacity:1;"/>
<stop offset="1" style="stop-color:rgb(15.686275%,33.333333%,58.823529%);stop-opacity:0.988235;"/>
</linearGradient>
<linearGradient id="linear2" gradientUnits="userSpaceOnUse" x1="43.79" y1="13.68" x2="56.4" y2="13.68" gradientTransform="matrix(1,0,0,1,0,0.02)">
<stop offset="0" style="stop-color:rgb(23.529412%,38.431373%,67.843137%);stop-opacity:1;"/>
<stop offset="1" style="stop-color:rgb(15.686275%,33.333333%,58.823529%);stop-opacity:0.988235;"/>
</linearGradient>
<linearGradient id="linear3" gradientUnits="userSpaceOnUse" x1="58.62" y1="13.68" x2="68.74" y2="13.68" gradientTransform="matrix(1,0,0,1,0,0.02)">
<stop offset="0" style="stop-color:rgb(23.529412%,38.431373%,67.843137%);stop-opacity:1;"/>
<stop offset="1" style="stop-color:rgb(15.686275%,33.333333%,58.823529%);stop-opacity:0.988235;"/>
</linearGradient>
<linearGradient id="linear4" gradientUnits="userSpaceOnUse" x1="70.41" y1="13.68" x2="81.14" y2="13.68" gradientTransform="matrix(1,0,0,1,0,0.02)">
<stop offset="0" style="stop-color:rgb(23.529412%,38.431373%,67.843137%);stop-opacity:1;"/>
<stop offset="1" style="stop-color:rgb(15.686275%,33.333333%,58.823529%);stop-opacity:0.988235;"/>
</linearGradient>
<linearGradient id="linear5" gradientUnits="userSpaceOnUse" x1="83.88" y1="13.68" x2="93.32" y2="13.68" gradientTransform="matrix(1,0,0,1,0,0.02)">
<stop offset="0" style="stop-color:rgb(23.529412%,38.431373%,67.843137%);stop-opacity:1;"/>
<stop offset="1" style="stop-color:rgb(15.686275%,33.333333%,58.823529%);stop-opacity:0.988235;"/>
</linearGradient>
<linearGradient id="linear6" gradientUnits="userSpaceOnUse" x1="95.96" y1="13.68" x2="106.14" y2="13.68" gradientTransform="matrix(1,0,0,1,0,0.02)">
<stop offset="0" style="stop-color:rgb(23.529412%,38.431373%,67.843137%);stop-opacity:1;"/>
<stop offset="1" style="stop-color:rgb(15.686275%,33.333333%,58.823529%);stop-opacity:0.988235;"/>
</linearGradient>
<linearGradient id="linear7" gradientUnits="userSpaceOnUse" x1="108.47" y1="13.75" x2="118.81" y2="13.75" gradientTransform="matrix(1,0,0,1,0,0.02)">
<stop offset="0" style="stop-color:rgb(23.529412%,38.431373%,67.843137%);stop-opacity:1;"/>
<stop offset="1" style="stop-color:rgb(15.686275%,33.333333%,58.823529%);stop-opacity:0.988235;"/>
</linearGradient>
<linearGradient id="linear8" gradientUnits="userSpaceOnUse" x1="122.05" y1="13.67" x2="132.77" y2="13.67" gradientTransform="matrix(1,0,0,1,0,0.02)">
<stop offset="0" style="stop-color:rgb(23.529412%,38.431373%,67.843137%);stop-opacity:1;"/>
<stop offset="1" style="stop-color:rgb(15.686275%,33.333333%,58.823529%);stop-opacity:0.988235;"/>
</linearGradient>
<linearGradient id="linear9" gradientUnits="userSpaceOnUse" x1="135.56" y1="13.68" x2="145" y2="13.68" gradientTransform="matrix(1,0,0,1,0,0.02)">
<stop offset="0" style="stop-color:rgb(23.529412%,38.431373%,67.843137%);stop-opacity:1;"/>
<stop offset="1" style="stop-color:rgb(15.686275%,33.333333%,58.823529%);stop-opacity:0.988235;"/>
</linearGradient>
</defs>
<g id="surface1">
<path style=" stroke:none;fill-rule:nonzero;fill:url(#linear0);" d="M 0.0585938 24.941406 C 0.0585938 24.738281 0.0585938 24.570312 0 24.410156 C -0.0585938 24.25 0 24.210938 0 24.109375 C 0 22.109375 0 20.109375 0 18.171875 C -0.0117188 17.183594 0.109375 16.203125 0.359375 15.25 C 0.628906 14.128906 0.988281 13.027344 1.429688 11.960938 L 1.558594 11.671875 L 3.890625 12.671875 C 3.875 12.710938 3.859375 12.75 3.839844 12.789062 C 3.109375 14.203125 2.597656 15.722656 2.328125 17.289062 C 2.15625 18.425781 2.09375 19.574219 2.148438 20.71875 C 2.15625 20.863281 2.175781 21.003906 2.210938 21.140625 C 2.210938 21.359375 2.269531 21.371094 2.46875 21.289062 L 4.289062 20.519531 L 9.75 18.171875 C 10.011719 18.054688 10.308594 18.054688 10.570312 18.171875 L 17.960938 21.171875 L 18.261719 21.28125 C 18.269531 21.164062 18.269531 21.046875 18.261719 20.929688 C 18.257812 19.582031 18.171875 18.238281 18 16.898438 C 17.941406 16.421875 17.871094 15.898438 17.808594 15.449219 C 17.785156 15.25 17.644531 15.085938 17.449219 15.03125 L 9.121094 11.78125 L 3.121094 9.421875 C 2.699219 9.261719 2.738281 9.328125 2.929688 8.929688 C 4.199219 6.246094 5.9375 3.808594 8.070312 1.738281 C 8.660156 1.171875 9.300781 0.648438 9.921875 0.101562 C 9.960938 0.0546875 10.015625 0.03125 10.074219 0.03125 C 10.132812 0.03125 10.191406 0.0546875 10.230469 0.101562 C 12.625 1.660156 14.671875 3.703125 16.230469 6.101562 C 17.113281 7.457031 17.828125 8.914062 18.371094 10.441406 C 18.394531 10.492188 18.410156 10.546875 18.421875 10.601562 C 18.421875 10.601562 18.421875 10.601562 18.421875 10.660156 L 18.210938 10.609375 C 17.300781 10.289062 16.390625 9.96875 15.488281 9.609375 C 15.335938 9.546875 15.210938 9.433594 15.128906 9.289062 C 14.402344 8.003906 13.558594 6.789062 12.609375 5.660156 C 11.929688 4.871094 11.199219 4.128906 10.488281 3.371094 C 10.300781 3.171875 10.28125 3.179688 10.078125 3.371094 C 8.667969 4.738281 7.425781 6.273438 6.378906 7.941406 C 6.375 7.972656 6.375 8.007812 6.378906 8.039062 C 6.378906 8.039062 6.378906 8.039062 6.378906 8.101562 L 6.671875 8.230469 C 10.890625 9.863281 15.128906 11.492188 19.390625 13.121094 C 19.59375 13.179688 19.738281 13.359375 19.761719 13.570312 C 19.949219 14.570312 20.160156 15.628906 20.320312 16.671875 C 20.449219 17.449219 20.53125 18.234375 20.570312 19.019531 C 20.628906 20.210938 20.640625 21.410156 20.628906 22.601562 C 20.628906 23.308594 20.570312 24.011719 20.539062 24.71875 C 20.539062 24.800781 20.539062 24.890625 20.488281 24.988281 L 19 24.410156 L 10.628906 21.019531 C 10.390625 20.914062 10.117188 20.914062 9.878906 21.019531 L 0.359375 24.839844 Z M 0.0585938 24.941406 "/>
<path style=" stroke:none;fill-rule:nonzero;fill:url(#linear1);" d="M 34.820312 6.339844 L 36.230469 6.339844 L 39.230469 17.878906 L 41.828125 6.339844 L 44 6.339844 L 40.398438 21.019531 L 38.300781 21.019531 L 35.589844 10.769531 L 32.75 21.019531 L 30.648438 21.019531 L 27.058594 6.339844 L 29.199219 6.339844 L 31.800781 17.878906 Z M 34.820312 6.339844 "/>
<path style=" stroke:none;fill-rule:nonzero;fill:url(#linear2);" d="M 49.210938 6.339844 L 51 6.339844 L 56.398438 21.019531 L 54.171875 21.019531 L 50.089844 9.179688 L 46 21.019531 L 43.789062 21.019531 Z M 46.289062 15.859375 L 54 15.859375 L 54 17.859375 L 46.289062 17.859375 Z M 46.289062 15.859375 "/>
<path style=" stroke:none;fill-rule:nonzero;fill:url(#linear3);" d="M 58.621094 6.339844 L 60.691406 6.339844 L 60.691406 21.019531 L 58.621094 21.019531 Z M 59.691406 13.339844 L 64.390625 13.339844 C 65.238281 13.386719 66.03125 12.910156 66.390625 12.140625 C 66.761719 11.292969 66.761719 10.328125 66.390625 9.480469 C 66.03125 8.703125 65.242188 8.222656 64.390625 8.261719 L 59.691406 8.261719 L 59.691406 6.261719 L 64.320312 6.261719 C 65.128906 6.246094 65.925781 6.4375 66.640625 6.820312 C 67.296875 7.191406 67.832031 7.746094 68.191406 8.410156 C 68.570312 9.136719 68.757812 9.949219 68.738281 10.769531 C 68.757812 11.59375 68.570312 12.410156 68.191406 13.140625 C 67.832031 13.796875 67.292969 14.34375 66.640625 14.710938 C 65.925781 15.089844 65.128906 15.285156 64.320312 15.269531 L 59.691406 15.269531 Z M 59.691406 13.339844 "/>
<path style=" stroke:none;fill-rule:nonzero;fill:url(#linear4);" d="M 73.730469 21.019531 C 72.503906 20.765625 71.363281 20.210938 70.410156 19.398438 L 71.691406 17.820312 C 72.238281 18.296875 72.867188 18.671875 73.550781 18.921875 C 74.253906 19.164062 74.996094 19.289062 75.738281 19.28125 C 76.605469 19.328125 77.46875 19.125 78.21875 18.691406 C 78.789062 18.328125 79.125 17.691406 79.101562 17.019531 C 79.125 16.582031 78.984375 16.148438 78.699219 15.808594 C 78.429688 15.503906 78.085938 15.273438 77.699219 15.140625 C 77.164062 14.964844 76.617188 14.828125 76.058594 14.738281 L 75.75 14.738281 C 74.9375 14.609375 74.132812 14.417969 73.351562 14.171875 C 72.71875 13.949219 72.167969 13.539062 71.769531 13 C 71.289062 12.296875 71.054688 11.453125 71.109375 10.601562 C 71.082031 9.78125 71.296875 8.972656 71.71875 8.269531 C 72.148438 7.601562 72.773438 7.089844 73.511719 6.800781 C 74.40625 6.4375 75.363281 6.265625 76.328125 6.289062 C 76.851562 6.292969 77.371094 6.347656 77.878906 6.460938 C 78.398438 6.582031 78.902344 6.753906 79.390625 6.96875 C 79.902344 7.210938 80.390625 7.496094 80.851562 7.828125 L 79.679688 9.371094 C 79.164062 8.984375 78.601562 8.671875 78 8.441406 C 77.464844 8.238281 76.902344 8.136719 76.328125 8.128906 C 75.507812 8.078125 74.6875 8.289062 73.988281 8.730469 C 73.4375 9.121094 73.125 9.765625 73.148438 10.441406 C 73.125 10.878906 73.277344 11.308594 73.578125 11.628906 C 73.882812 11.925781 74.246094 12.148438 74.648438 12.28125 C 75.078125 12.410156 75.648438 12.558594 76.441406 12.710938 L 76.808594 12.710938 C 77.574219 12.851562 78.320312 13.066406 79.039062 13.351562 C 79.644531 13.605469 80.164062 14.023438 80.539062 14.558594 C 80.972656 15.238281 81.183594 16.035156 81.140625 16.839844 C 81.164062 17.65625 80.945312 18.460938 80.511719 19.148438 C 80.050781 19.808594 79.40625 20.3125 78.660156 20.601562 C 77.730469 20.957031 76.738281 21.128906 75.738281 21.101562 C 75.070312 21.144531 74.394531 21.121094 73.730469 21.019531 Z M 73.730469 21.019531 "/>
<path style=" stroke:none;fill-rule:nonzero;fill:url(#linear5);" d="M 83.878906 6.339844 L 85.941406 6.339844 L 85.941406 21.019531 L 83.878906 21.019531 Z M 84.878906 6.339844 L 93.320312 6.339844 L 93.320312 8.339844 L 84.878906 8.339844 Z M 84.878906 12.769531 L 92.210938 12.769531 L 92.210938 14.769531 L 84.878906 14.769531 Z M 84.878906 19.089844 L 93.320312 19.089844 L 93.320312 21.089844 L 84.878906 21.089844 Z M 84.878906 19.089844 "/>
<path style=" stroke:none;fill-rule:nonzero;fill:url(#linear6);" d="M 98.390625 20.53125 C 97.617188 20.070312 96.996094 19.402344 96.589844 18.601562 C 96.167969 17.699219 95.964844 16.714844 96 15.71875 L 96 11.71875 C 95.980469 10.722656 96.195312 9.738281 96.628906 8.839844 C 97.035156 8.039062 97.660156 7.371094 98.429688 6.910156 C 99.246094 6.445312 100.171875 6.210938 101.109375 6.230469 C 101.917969 6.222656 102.71875 6.40625 103.441406 6.769531 C 104.148438 7.128906 104.757812 7.65625 105.21875 8.300781 C 105.71875 8.984375 106.058594 9.769531 106.21875 10.601562 L 104 10.601562 C 103.875 10.148438 103.660156 9.730469 103.359375 9.371094 C 103.070312 9.019531 102.710938 8.738281 102.300781 8.539062 C 101.605469 8.1875 100.800781 8.136719 100.066406 8.394531 C 99.332031 8.648438 98.734375 9.195312 98.410156 9.898438 C 98.152344 10.472656 98.023438 11.09375 98.039062 11.71875 L 98.039062 15.71875 C 98.027344 16.347656 98.152344 16.96875 98.410156 17.539062 C 98.875 18.570312 99.910156 19.222656 101.039062 19.191406 C 101.472656 19.191406 101.90625 19.101562 102.300781 18.921875 C 102.710938 18.738281 103.074219 18.460938 103.359375 18.109375 C 103.667969 17.738281 103.886719 17.300781 104 16.828125 L 106.109375 16.828125 C 105.957031 17.664062 105.613281 18.449219 105.109375 19.128906 C 104.648438 19.777344 104.039062 20.300781 103.328125 20.660156 C 102.613281 21.023438 101.816406 21.210938 101.011719 21.199219 C 100.09375 21.210938 99.191406 20.980469 98.390625 20.53125 Z M 98.390625 20.53125 "/>
<path style=" stroke:none;fill-rule:nonzero;fill:url(#linear7);" d="M 110.839844 20.558594 C 110.074219 20.136719 109.457031 19.480469 109.078125 18.691406 C 108.644531 17.753906 108.433594 16.722656 108.46875 15.691406 L 108.46875 6.339844 L 110.53125 6.339844 L 110.53125 15.800781 C 110.472656 16.703125 110.761719 17.59375 111.339844 18.289062 C 112.644531 19.464844 114.625 19.464844 115.929688 18.289062 C 116.515625 17.597656 116.808594 16.703125 116.75 15.800781 L 116.75 6.339844 L 118.808594 6.339844 L 118.808594 15.730469 C 118.847656 16.765625 118.636719 17.792969 118.199219 18.730469 C 117.824219 19.523438 117.203125 20.179688 116.429688 20.601562 C 114.664062 21.453125 112.605469 21.453125 110.839844 20.601562 Z M 110.839844 20.558594 "/>
<path style=" stroke:none;fill-rule:nonzero;fill:url(#linear8);" d="M 122.050781 6.328125 L 124.109375 6.328125 L 124.109375 21.019531 L 122.050781 21.019531 Z M 122.949219 12.871094 L 127.949219 12.871094 C 128.304688 12.867188 128.648438 12.765625 128.949219 12.578125 C 129.257812 12.386719 129.5 12.109375 129.648438 11.78125 C 129.824219 11.40625 129.910156 10.992188 129.898438 10.578125 C 129.910156 10.167969 129.824219 9.753906 129.648438 9.378906 C 129.5 9.050781 129.257812 8.773438 128.949219 8.578125 C 128.648438 8.394531 128.304688 8.292969 127.949219 8.289062 L 122.949219 8.289062 L 122.949219 6.289062 L 127.890625 6.289062 C 128.667969 6.273438 129.441406 6.457031 130.128906 6.820312 C 130.761719 7.160156 131.277344 7.679688 131.621094 8.308594 C 131.988281 8.992188 132.175781 9.761719 132.160156 10.539062 C 132.175781 11.316406 131.988281 12.085938 131.621094 12.769531 C 131.273438 13.402344 130.753906 13.917969 130.121094 14.261719 C 129.433594 14.621094 128.667969 14.804688 127.890625 14.789062 L 123 14.789062 Z M 126.949219 14.371094 L 129.011719 13.910156 L 132.769531 21.019531 L 130.320312 21.019531 Z M 126.949219 14.371094 "/>
<path style=" stroke:none;fill-rule:nonzero;fill:url(#linear9);" d="M 135.558594 6.339844 L 137.621094 6.339844 L 137.621094 21.019531 L 135.558594 21.019531 Z M 136.558594 6.339844 L 145 6.339844 L 145 8.339844 L 136.558594 8.339844 Z M 136.558594 12.769531 L 143.890625 12.769531 L 143.890625 14.769531 L 136.558594 14.769531 Z M 136.558594 19.089844 L 145 19.089844 L 145 21.089844 L 136.558594 21.089844 Z M 136.558594 19.089844 "/>
</g>
</svg>
